<?xml version="1.0" encoding="utf-8"?>
<!-- Generator: Adobe Illustrator 16.0.0, SVG Export Plug-In . SVG Version: 6.00 Build 0)  -->
<!DOCTYPE svg PUBLIC "-//W3C//DTD SVG 1.1//EN" "http://www.w3.org/Graphics/SVG/1.1/DTD/svg11.dtd">
<svg version="1.1" id="Capa_1" xmlns="http://www.w3.org/2000/svg" xmlns:xlink="http://www.w3.org/1999/xlink" x="0px" y="0px"
	 width="126px" height="150px" viewBox="317.34 186.72 126 150" enable-background="new 317.34 186.72 126 150"
	 xml:space="preserve">
<path fill="#757575" stroke="#757575" stroke-miterlimit="10" d="M441.011,219.023c0,2.524-2.044,4.57-4.57,4.57h-9.188
	l-30.467,70.073h-62.931l-12.187-48.747h59.17c2.525,0,4.569,2.045,4.569,4.57c0,2.524-2.044,4.57-4.569,4.57h-47.462l7.617,30.466
	h49.797l30.467-70.073h15.183C438.967,214.453,441.011,216.499,441.011,219.023z M362.388,308.138
	c0,6.973-5.673,12.645-12.645,12.645c-6.97,0-12.644-5.672-12.644-12.645c0-6.972,5.673-12.644,12.644-12.644
	C356.714,295.495,362.388,301.167,362.388,308.138z M356.294,308.138c0-3.612-2.939-6.551-6.551-6.551
	c-3.611,0-6.55,2.938-6.55,6.551c0,3.611,2.938,6.551,6.55,6.551C353.355,314.689,356.294,311.75,356.294,308.138z M395.991,308.138
	c0,6.973-5.674,12.645-12.645,12.645s-12.644-5.672-12.644-12.645c0-6.972,5.673-12.644,12.644-12.644
	S395.991,301.167,395.991,308.138z M389.898,308.138c0-3.612-2.939-6.551-6.552-6.551s-6.55,2.938-6.55,6.551
	c0,3.611,2.938,6.551,6.55,6.551S389.898,311.75,389.898,308.138z"/>
</svg>
