<?xml version="1.0" encoding="utf-8"?>
<!-- Generator: Adobe Illustrator 16.0.0, SVG Export Plug-In . SVG Version: 6.00 Build 0)  -->
<!DOCTYPE svg PUBLIC "-//W3C//DTD SVG 1.1//EN" "http://www.w3.org/Graphics/SVG/1.1/DTD/svg11.dtd">
<svg version="1.1" id="Capa_1" xmlns="http://www.w3.org/2000/svg" xmlns:xlink="http://www.w3.org/1999/xlink" x="0px" y="0px"
	 width="126px" height="150px" viewBox="317.34 186.72 126 150" enable-background="new 317.34 186.72 126 150"
	 xml:space="preserve">
<g id="info-outline">
	<path fill="#757575" stroke="#757575" stroke-miterlimit="10" d="M374.563,289.684h11.249v-33.748h-11.249V289.684z
		 M380.187,205.314c-30.936,0-56.247,25.311-56.247,56.247c0,30.936,25.311,56.248,56.247,56.248s56.247-25.312,56.247-56.248
		C436.434,230.625,411.123,205.314,380.187,205.314z M380.187,306.559c-24.749,0-44.998-20.25-44.998-44.999
		s20.249-44.997,44.998-44.997s44.998,20.249,44.998,44.997S404.936,306.559,380.187,306.559z M374.563,244.687h11.249v-11.25
		h-11.249V244.687z"/>
</g>
</svg>
