<?xml version="1.0" encoding="utf-8"?>
<!-- Generator: Adobe Illustrator 16.0.0, SVG Export Plug-In . SVG Version: 6.00 Build 0)  -->
<!DOCTYPE svg PUBLIC "-//W3C//DTD SVG 1.1//EN" "http://www.w3.org/Graphics/SVG/1.1/DTD/svg11.dtd">
<svg version="1.1" id="Capa_1" xmlns="http://www.w3.org/2000/svg" xmlns:xlink="http://www.w3.org/1999/xlink" x="0px" y="0px"
	 width="126px" height="150px" viewBox="317.34 186.72 126 150" enable-background="new 317.34 186.72 126 150"
	 xml:space="preserve">
<path fill="#757575" stroke="#757575" stroke-miterlimit="10" d="M380.187,207.838c-29.712,0-53.88,24.171-53.88,53.884
	c0,29.706,24.168,53.881,53.88,53.881c1.837,0,3.321-1.489,3.321-3.318c0-1.837-1.484-3.325-3.321-3.325
	c-26.047,0-47.232-21.191-47.232-47.235c0-26.047,21.185-47.238,47.232-47.238c26.05,0,47.233,21.191,47.233,47.238
	c0,10.884-5.791,21.677-14.084,26.243c-3.008,1.657-6.275,2.475-9.762,2.508c2.094-1.243,3.905-2.926,5.251-5.052
	c0.265-0.396,0.61-0.741,0.784-1.186c1.081-2.603,1.175-5.55,1.832-8.299c0.799-3.517-15.365-10.367-16.771-5.985
	c-0.508,1.624-1.287,6.753-2.307,8.104c-0.911,1.209-3.144,0.639-4.541-0.553c-3.686-3.138-7.804-7.755-11.413-11.404h0.007
	c-0.092-0.097-0.205-0.203-0.303-0.303c-0.103-0.098-0.206-0.207-0.308-0.304v0.005c-3.648-3.608-8.266-7.716-11.404-11.412
	c-1.187-1.398-1.761-3.629-0.555-4.539c1.354-1.023,6.487-1.792,8.11-2.304c4.374-1.401-2.475-17.578-5.991-16.771
	c-2.745,0.644-5.697,0.743-8.302,1.822c-0.44,0.184-0.784,0.528-1.184,0.791c-9.232,5.856-10.424,20.067-1.41,30.653
	c3.432,4.05,7.015,7.97,10.703,11.793l-0.019,0.017c0.101,0.103,0.207,0.196,0.313,0.293c0.098,0.105,0.193,0.207,0.29,0.315
	l0.02-0.02c3.827,3.686,8.362,9.118,15.731,14.033c15.515,10.36,27.426,7.471,34.435,3.622c12.107-6.669,17.522-20.909,17.522-32.06
	C434.066,232.009,409.895,207.838,380.187,207.838z"/>
</svg>
