<?xml version="1.0" encoding="utf-8"?>
<!-- Generator: Adobe Illustrator 16.0.0, SVG Export Plug-In . SVG Version: 6.00 Build 0)  -->
<!DOCTYPE svg PUBLIC "-//W3C//DTD SVG 1.1//EN" "http://www.w3.org/Graphics/SVG/1.1/DTD/svg11.dtd">
<svg version="1.1" id="Capa_1" xmlns="http://www.w3.org/2000/svg" xmlns:xlink="http://www.w3.org/1999/xlink" x="0px" y="0px"
	 width="126px" height="150px" viewBox="317.34 186.72 126 150" enable-background="new 317.34 186.72 126 150"
	 xml:space="preserve">
<path fill="#757575" d="M418.303,207.581c-10.513,0-19.031,8.52-19.031,19.032c0,2.839,0.625,5.538,1.738,7.955l17.293,33.915
	l17.291-33.915c1.116-2.417,1.741-5.115,1.741-7.955C437.335,216.101,428.814,207.581,418.303,207.581z M418.303,238.031
	c-6.304,0-11.419-5.114-11.419-11.418c0-6.305,5.115-11.419,11.419-11.419c6.305,0,11.42,5.114,11.42,11.419
	C429.723,232.917,424.607,238.031,418.303,238.031z M423.998,274.065l6.928,13.849l-17.566,8.78l-5.889-29.454l0.989-0.988
	l0.104-0.104l-3.628-7.137l-1.857,1.86l-22.838-15.226l-22.837,15.226l-15.225-15.226l-22.838,45.675l30.45,15.226l30.45-15.226
	l30.45,15.226l30.45-15.226l-12.847-25.686L423.998,274.065z M347.114,296.694l-17.56-8.78l14.705-29.424l7.761,7.762l0.989,0.988
	L347.114,296.694z M376.434,284.709l-21.291,10.646l5.501-27.498l0.981-0.653l14.809-9.873V284.709z M384.046,284.709v-27.379
	l14.81,9.873l0.974,0.653l5.502,27.498L384.046,284.709z"/>
</svg>
