<?xml version="1.0" encoding="utf-8"?>
<!-- Generator: Adobe Illustrator 16.0.0, SVG Export Plug-In . SVG Version: 6.00 Build 0)  -->
<!DOCTYPE svg PUBLIC "-//W3C//DTD SVG 1.1//EN" "http://www.w3.org/Graphics/SVG/1.1/DTD/svg11.dtd">
<svg version="1.1" id="Capa_1" xmlns="http://www.w3.org/2000/svg" xmlns:xlink="http://www.w3.org/1999/xlink" x="0px" y="0px"
	 width="126px" height="150px" viewBox="317.34 186.72 126 150" enable-background="new 317.34 186.72 126 150"
	 xml:space="preserve">
<g id="Notepad">
	<g>
		<path fill="#757575" d="M426.639,225.512h-12.93v-12.93h-12.931v12.93h-12.93v-12.93h-12.93v12.93h-12.93v-12.93h-12.931v12.93
			h-12.93c-3.568,0-6.465,2.896-6.465,6.465v77.58c0,3.567,2.896,6.465,6.465,6.465h90.51c3.568,0,6.465-2.897,6.465-6.465v-77.58
			C433.104,228.408,430.207,225.512,426.639,225.512z M420.174,303.091h-77.58v-64.65h6.465v6.465h12.931v-6.465h12.93v6.465h12.93
			v-6.465h12.93v6.465h12.931v-6.465h6.465V303.091z"/>
	</g>
</g>
</svg>
