<?xml version="1.0" encoding="utf-8"?>
<!-- Generator: Adobe Illustrator 16.0.0, SVG Export Plug-In . SVG Version: 6.00 Build 0)  -->
<!DOCTYPE svg PUBLIC "-//W3C//DTD SVG 1.1//EN" "http://www.w3.org/Graphics/SVG/1.1/DTD/svg11.dtd">
<svg version="1.1" id="Capa_1" xmlns="http://www.w3.org/2000/svg" xmlns:xlink="http://www.w3.org/1999/xlink" x="0px" y="0px"
	 width="126px" height="150px" viewBox="317.34 186.72 126 150" enable-background="new 317.34 186.72 126 150"
	 xml:space="preserve">
<path fill="#757575" stroke="#757575" stroke-miterlimit="10" d="M425.263,231.436c-5.691-7.498-14.978-11.972-24.841-11.972
	c-7.151,0-13.956,2.576-19.065,6.957c-5.12-4.381-11.945-6.957-19.144-6.957c-9.844,0-19.114,4.47-24.805,11.95
	c-4.676,6.151-9.184,17.294-4.139,35.466l0.039,0.147l0.048,0.141c4.13,12.734,12.969,24.671,26.256,35.482
	c0.162,0.132,16.726,13.12,21.752,13.12c5.025,0,21.565-12.988,21.728-13.12c13.278-10.812,22.104-22.748,26.23-35.482l0.048-0.141
	l0.042-0.147C434.455,248.728,429.944,237.582,425.263,231.436z M422.641,265.003c-8.938,27.545-41.26,43.743-41.276,43.743
	c-0.016,0-32.383-16.198-41.325-43.743c-7.827-28.187,9.359-38.511,22.174-38.511c8.203,0,15.704,4.296,19.151,10.983
	c3.445-6.687,10.854-10.983,19.058-10.983C413.237,226.493,430.475,236.816,422.641,265.003z"/>
</svg>
