<?xml version="1.0" encoding="utf-8"?>
<!-- Generator: Adobe Illustrator 16.0.0, SVG Export Plug-In . SVG Version: 6.00 Build 0)  -->
<!DOCTYPE svg PUBLIC "-//W3C//DTD SVG 1.1//EN" "http://www.w3.org/Graphics/SVG/1.1/DTD/svg11.dtd">
<svg version="1.1" id="Capa_1" xmlns="http://www.w3.org/2000/svg" xmlns:xlink="http://www.w3.org/1999/xlink" x="0px" y="0px"
	 width="126px" height="150px" viewBox="317.34 186.72 126 150" enable-background="new 317.34 186.72 126 150"
	 xml:space="preserve">
<g id="_x32__18_">
	<g>
		<path fill="#757575" stroke="#757575" stroke-miterlimit="10" d="M396.977,266.407H364.18c-1.81,0-3.279,1.471-3.279,3.279
			c0,1.811,1.469,3.28,3.279,3.28h32.796c1.811,0,3.28-1.47,3.28-3.28C400.257,267.877,398.787,266.407,396.977,266.407z
			 M403.537,246.729h-45.916c-1.811,0-3.279,1.47-3.279,3.28c0,1.811,1.469,3.279,3.279,3.279h45.916
			c1.811,0,3.279-1.469,3.279-3.279C406.816,248.198,405.348,246.729,403.537,246.729z M380.579,210.652
			c-28.98,0-52.475,20.558-52.475,45.916c0,14.493,7.691,27.396,19.678,35.811v23.225l22.988-13.949
			c3.181,0.524,6.455,0.83,9.81,0.83c28.982,0,52.475-20.558,52.475-45.916S409.561,210.652,380.579,210.652z M380.579,295.923
			c-3.831,0-7.53-0.445-11.086-1.203l-15.44,9.281l0.206-15.211c-11.836-7.12-19.596-18.888-19.596-32.223
			c0-21.735,20.557-39.357,45.916-39.357s45.917,17.622,45.917,39.357C426.495,278.302,405.938,295.923,380.579,295.923z"/>
	</g>
</g>
</svg>
