<?xml version="1.0" encoding="utf-8"?>
<!-- Generator: Adobe Illustrator 16.0.0, SVG Export Plug-In . SVG Version: 6.00 Build 0)  -->
<!DOCTYPE svg PUBLIC "-//W3C//DTD SVG 1.1//EN" "http://www.w3.org/Graphics/SVG/1.1/DTD/svg11.dtd">
<svg version="1.1" id="Capa_1" xmlns="http://www.w3.org/2000/svg" xmlns:xlink="http://www.w3.org/1999/xlink" x="0px" y="0px"
	 width="126px" height="150px" viewBox="317.34 186.72 126 150" enable-background="new 317.34 186.72 126 150"
	 xml:space="preserve">
<g id="history">
	<path opacity="0.9" fill="#757575" stroke="#757575" stroke-miterlimit="10" enable-background="new    " d="M382.769,217.026
		c-16.998,0-32.052,9.227-39.821,23.311l-11.17-11.169v31.566h31.566l-13.598-13.599c6.313-12.141,18.455-20.397,33.023-20.397
		c19.912,0,36.424,16.512,36.424,36.423s-16.512,36.422-36.424,36.422c-16.026,0-29.138-10.197-34.48-24.281H338.09
		c5.342,19.426,23.311,33.995,44.678,33.995c25.739,0,46.135-20.884,46.135-46.136C428.903,237.908,408.021,217.026,382.769,217.026
		z M375.484,241.308v24.768l22.825,13.598l3.886-6.313l-19.427-11.655v-20.397H375.484z"/>
</g>
</svg>
