<?xml version="1.0" encoding="utf-8"?>
<!-- Generator: Adobe Illustrator 16.0.0, SVG Export Plug-In . SVG Version: 6.00 Build 0)  -->
<!DOCTYPE svg PUBLIC "-//W3C//DTD SVG 1.1//EN" "http://www.w3.org/Graphics/SVG/1.1/DTD/svg11.dtd">
<svg version="1.1" id="Capa_1" xmlns="http://www.w3.org/2000/svg" xmlns:xlink="http://www.w3.org/1999/xlink" x="0px" y="0px"
	 width="126px" height="150px" viewBox="317.34 186.72 126 150" enable-background="new 317.34 186.72 126 150"
	 xml:space="preserve">
<g opacity="0.9" enable-background="new    ">
	<path fill="#757575" stroke="#757575" stroke-miterlimit="10" d="M327.847,316.45h47.722v-47.722h-47.722V316.45z M337.39,278.273
		h28.633v28.56H337.39V278.273z"/>
	<rect x="346.935" y="287.816" fill="#757575" stroke="#757575" stroke-miterlimit="10" width="9.544" height="9.546"/>
	<rect x="404.2" y="306.907" fill="#757575" stroke="#757575" stroke-miterlimit="10" width="9.546" height="9.543"/>
	<rect x="423.288" y="306.907" fill="#757575" stroke="#757575" stroke-miterlimit="10" width="9.546" height="9.543"/>
	<polygon fill="#757575" stroke="#757575" stroke-miterlimit="10" points="423.289,278.273 413.746,278.273 413.746,268.728 
		385.111,268.728 385.111,316.45 394.656,316.45 394.656,287.816 404.2,287.816 404.2,297.362 432.834,297.362 432.834,268.728 
		432.834,268.728 423.289,268.728 	"/>
	<path fill="#757575" stroke="#757575" stroke-miterlimit="10" d="M327.847,259.186h47.722v-47.723h-47.722V259.186z
		 M337.39,221.006h28.633v28.633H337.39V221.006z"/>
	<rect x="346.935" y="230.551" fill="#757575" stroke="#757575" stroke-miterlimit="10" width="9.544" height="9.545"/>
	<path fill="#757575" stroke="#757575" stroke-miterlimit="10" d="M385.111,211.463v47.723h47.723v-47.723H385.111z M423.289,249.64
		h-28.633v-28.633h28.633V249.64z"/>
	<rect x="404.2" y="230.551" fill="#757575" stroke="#757575" stroke-miterlimit="10" width="9.546" height="9.545"/>
</g>
</svg>
