<?xml version="1.0" encoding="utf-8"?>
<!-- Generator: Adobe Illustrator 16.0.0, SVG Export Plug-In . SVG Version: 6.00 Build 0)  -->
<!DOCTYPE svg PUBLIC "-//W3C//DTD SVG 1.1//EN" "http://www.w3.org/Graphics/SVG/1.1/DTD/svg11.dtd">
<svg version="1.1" id="Capa_1" xmlns="http://www.w3.org/2000/svg" xmlns:xlink="http://www.w3.org/1999/xlink" x="0px" y="0px"
	 width="126px" height="150px" viewBox="317.34 186.72 126 150" enable-background="new 317.34 186.72 126 150"
	 xml:space="preserve">
<path fill="#757575" d="M430.791,321.633H418.65c0-20.484-17.184-37.143-38.317-37.143c-21.136,0-38.304,16.665-38.304,37.143
	h-12.14c0-27.188,22.634-49.284,50.451-49.284C408.154,272.349,430.791,294.445,430.791,321.633z"/>
<path fill="#757575" d="M380.34,268.401c-18.354,0-33.295-14.946-33.295-33.294c0-18.361,14.94-33.301,33.295-33.301
	c18.365,0,33.306,14.935,33.306,33.301C413.646,253.467,398.705,268.401,380.34,268.401z M380.34,213.948
	c-11.667,0-21.154,9.491-21.154,21.159c0,11.666,9.487,21.152,21.154,21.152c11.678,0,21.164-9.486,21.164-21.152
	C401.504,223.439,392.006,213.948,380.34,213.948z"/>
</svg>
