<?xml version="1.0" encoding="utf-8"?>
<!-- Generator: Adobe Illustrator 16.0.0, SVG Export Plug-In . SVG Version: 6.00 Build 0)  -->
<!DOCTYPE svg PUBLIC "-//W3C//DTD SVG 1.1//EN" "http://www.w3.org/Graphics/SVG/1.1/DTD/svg11.dtd">
<svg version="1.1" id="Layer_1" xmlns="http://www.w3.org/2000/svg" xmlns:xlink="http://www.w3.org/1999/xlink" x="0px" y="0px"
	 width="158px" height="207px" viewBox="0 0 158 207" enable-background="new 0 0 158 207" xml:space="preserve">
<path d="M53.5,139.75L79,117.5c0,0,7.25-4,11.5,1.5c3,5,0,8.923,0,8.923l-25,29.327c0,0-0.25,9.75-6.5,21.5s-13,18.75-22.75,18
	s-18.5-3.25-20.75-25.5c-0.475-12.093,0-14.8,0-14.8l-0.556-53.7c0,0-0.444-6,5.806-12S34.5,76.5,34.5,76.5v36.75L53.5,139.75z"/>
<rect x="58.25" y="53.25" width="3.25" height="23.25"/>
<rect x="58.25" y="53.25" width="23.25" height="3.25"/>
<rect x="79.25" y="53.25" width="3.25" height="23.25"/>
<rect x="58.25" y="73.25" width="23.25" height="3.25"/>
<rect x="65" y="60.25" width="10" height="10.25"/>
<rect x="104.75" y="53.75" width="3.25" height="23.25"/>
<rect x="104.75" y="53.75" width="23.25" height="3.25"/>
<rect x="125.75" y="53.75" width="3.249" height="23.25"/>
<rect x="104.75" y="73.75" width="23.25" height="3.25"/>
<rect x="111.5" y="60.75" width="10" height="10.25"/>
<rect x="86.5" y="53.75" width="13" height="5"/>
<rect x="95.75" y="77" width="3.75" height="9.25"/>
<rect x="123.75" y="81.625" width="4.25" height="13.125"/>
<rect x="58.25" y="81.625" width="4.5" height="9.625"/>
<rect x="62.75" y="91.25" width="9.25" height="5"/>
<rect x="77" y="91.25" width="9.5" height="5"/>
<rect x="67.375" y="81.625" width="23.375" height="4.625"/>
<rect x="82.499" y="76.5" width="4.001" height="9.75"/>
<rect x="86.5" y="81.375" width="4.25" height="9.875"/>
<rect x="90.75" y="91.25" width="8.75" height="9.875"/>
<rect x="90.75" y="91.25" width="18.5" height="4.938"/>
<rect x="113.75" y="91.25" width="4.5" height="5"/>
<rect x="104.75" y="81.375" width="13.5" height="4.875"/>
<rect x="86.5" y="63.25" width="4.25" height="10.5"/>
<rect x="86.5" y="69.5" width="13.5" height="4.25"/>
<rect x="109.25" y="99" width="18.75" height="4.5"/>
<rect x="109.25" y="109.25" width="9.375" height="8"/>
<rect x="109.25" y="109.25" width="19.749" height="4"/>
<rect x="113.938" y="114.25" width="5.188" height="7.5"/>
<rect x="123.75" y="117.25" width="4.25" height="4.5"/>
<rect x="104.75" y="117.25" width="4.5" height="4.5"/>
<rect x="97.625" y="117.25" width="1.875" height="4.5"/>
<path d="M86.5,101.125h4.25v4.042h18.5v4.083h-18.5v2c0,0-0.584-1.583-4.25-2C86.5,101.125,86.5,101.125,86.5,101.125z"/>
<path d="M81.75,99v8.513v1.737c0,0-1.292-0.249-2.688,0.917c-0.396-8.5-0.396-8.5-0.396-8.5L61.5,102v16.667h5.875l-4.625,3.666
	h-4.5l0-23.333v-0.667H81.5"/>
<path d="M136.75,23.5c-4.25-4.5-13.25-6.25-13.25-6.25s-54.5,0-61.25,0C41.5,21.5,41.5,39.75,41.5,39.75v70.5L52,125.5v-79h81.25
	V150h-52c0,0,0,0-9,11c-0.25,13.25-7.75,24-7.75,24s0,0,60.5-0.25C141.75,182,144.75,164,144.75,164s0-110.75,0-120.5
	S141,28,136.75,23.5z M66,35.501c-1.703,0-3.083-1.38-3.083-3.083s1.38-3.083,3.083-3.083s3.083,1.38,3.083,3.083
	S67.703,35.501,66,35.501z M104,34.001H81.75v-3H104V34.001z M106.375,174.5c0,0-0.041,2.5-3.541,2.5s-21.084,0-21.084,0
	s-2.418-0.667-2.5-3.167s0-13.833,0-13.833s1.263-2.001,3.59-2.167s20.327,0,20.327,0s2.249-0.166,3.208,2.167V174.5z
	 M123.75,168.046c-2.657,0-4.811-2.154-4.811-4.811s2.153-4.811,4.811-4.811c2.656,0,4.81,2.154,4.81,4.811
	S126.406,168.046,123.75,168.046z"/>
<rect x="84.5" y="162.498" width="17.334" height="10.166"/>
<polygon points="65,105.498 75,105.498 75,111.25 72,115.331 65,115.331 "/>
</svg>
