<?xml version="1.0" encoding="utf-8"?>
<!-- Generator: Adobe Illustrator 16.0.0, SVG Export Plug-In . SVG Version: 6.00 Build 0)  -->
<!DOCTYPE svg PUBLIC "-//W3C//DTD SVG 1.1//EN" "http://www.w3.org/Graphics/SVG/1.1/DTD/svg11.dtd">
<svg version="1.1" id="Capa_1" xmlns="http://www.w3.org/2000/svg" xmlns:xlink="http://www.w3.org/1999/xlink" x="0px" y="0px"
	 width="126px" height="150px" viewBox="317.34 186.72 126 150" enable-background="new 317.34 186.72 126 150"
	 xml:space="preserve">
<g>
	<g>
		<g>
			<g>
				<path fill="#757575" stroke="#757575" stroke-miterlimit="10" d="M385.88,311.333h-10.645c-1.602,0-2.16,0.004-7.616-13.517
					l-4.215-1.713c-11.483,5.21-12.843,5.21-13.297,5.21h-0.878l-0.75-0.644l-7.545-7.383c-1.147-1.145-1.545-1.542,4.359-14.886
					l-1.718-4.067c-13.863-4.966-13.863-5.542-13.863-7.18v-10.436c0-1.634,0-2.15,13.817-7.493l1.718-4.075
					c-6.245-13.14-5.816-13.548-4.583-14.708l8.114-7.955l1.007-0.032c1.226,0,5.77,1.658,13.521,4.931l4.203-1.707
					c5.059-13.573,5.68-13.571,7.275-13.571h10.645c1.595,0,2.153,0.002,7.613,13.525l4.219,1.701
					c11.467-5.202,12.844-5.202,13.304-5.202h0.87l0.753,0.632l7.544,7.37c1.146,1.158,1.54,1.555-4.364,14.903l1.723,4.088
					c13.88,4.946,13.88,5.521,13.88,7.161v10.423c0,1.597,0,2.157-13.835,7.505l-1.706,4.079
					c6.211,13.082,5.801,13.493,4.641,14.663l-8.177,8.005l-1.015,0.029c-1.218,0-5.752-1.66-13.493-4.937l-4.226,1.709
					C388.083,311.333,387.509,311.333,385.88,311.333z M376.342,307.024h8.395c0.963-1.963,3.046-7.169,4.714-11.654l0.334-0.893
					l7.645-3.087l0.822,0.349c4.557,1.943,9.939,4.095,12.04,4.758l5.9-5.771c-0.75-2.077-3.021-7.159-5.072-11.446l-0.415-0.872
					l3.164-7.551l0.862-0.331c4.603-1.771,9.934-3.959,11.926-4.956v-8.105c-2.017-0.947-7.326-2.968-11.905-4.591l-0.895-0.319
					l-3.183-7.557l0.38-0.853c1.957-4.419,4.136-9.633,4.834-11.733l-5.915-5.782c-1.91,0.667-7.254,2.957-11.764,5.015
					l-0.842,0.386l-7.641-3.082l-0.342-0.851c-1.81-4.509-4.055-9.738-5.066-11.674h-8.389c-0.968,1.958-3.043,7.167-4.708,11.65
					l-0.331,0.887l-7.623,3.099l-0.822-0.353c-4.566-1.939-9.96-4.088-12.067-4.75l-5.888,5.773
					c0.739,2.074,3.018,7.153,5.06,11.439l0.418,0.874l-3.178,7.547l-0.855,0.331c-4.595,1.769-9.917,3.954-11.91,4.947v8.117
					c2.016,0.95,7.321,2.976,11.894,4.606l0.89,0.322l3.184,7.532l-0.38,0.852c-1.959,4.415-4.135,9.621-4.835,11.718l5.927,5.801
					c1.904-0.672,7.243-2.965,11.758-5.022l0.845-0.387l7.628,3.102l0.341,0.849C373.091,299.867,375.329,305.086,376.342,307.024z
					 M380.339,279.086c-9.76,0-17.708-7.791-17.708-17.366c0-9.569,7.947-17.354,17.708-17.354c9.756,0,17.684,7.787,17.684,17.354
					C398.022,271.295,390.095,279.086,380.339,279.086z M380.339,248.678c-7.388,0-13.394,5.851-13.394,13.042
					c0,7.196,6.004,13.052,13.394,13.052c7.374,0,13.375-5.855,13.375-13.052C393.714,254.529,387.713,248.678,380.339,248.678z"/>
			</g>
		</g>
	</g>
</g>
</svg>
